<svg xmlns="http://www.w3.org/2000/svg" viewBox="0 0 32 32" width="32" height="32">
  <defs>
    <linearGradient id="houseGradient" x1="0%" y1="0%" x2="100%" y2="100%">
      <stop offset="0%" style="stop-color:#ff6700;stop-opacity:1" />
      <stop offset="100%" style="stop-color:#ff8533;stop-opacity:1" />
    </linearGradient>
    <linearGradient id="stoneGradient" x1="0%" y1="0%" x2="100%" y2="100%">
      <stop offset="0%" style="stop-color:#8b7355;stop-opacity:1" />
      <stop offset="100%" style="stop-color:#a68b5b;stop-opacity:1" />
    </linearGradient>
  </defs>
  
  <!-- Casa principal -->
  <path d="M16 4L4 12v16h8v-8h8v8h8V12L16 4z" fill="url(#houseGradient)" stroke="#e55a00" stroke-width="0.5"/>
  
  <!-- Telhado -->
  <path d="M16 4L4 12h24L16 4z" fill="#d44a00" stroke="#b83d00" stroke-width="0.5"/>
  
  <!-- Pedras decorativas -->
  <circle cx="8" cy="20" r="2" fill="url(#stoneGradient)" opacity="0.8"/>
  <circle cx="24" cy="18" r="1.5" fill="url(#stoneGradient)" opacity="0.7"/>
  <circle cx="6" cy="26" r="1" fill="url(#stoneGradient)" opacity="0.6"/>
  <circle cx="26" cy="24" r="1.2" fill="url(#stoneGradient)" opacity="0.8"/>
  
  <!-- Porta -->
  <rect x="14" y="20" width="4" height="8" fill="#8b4513" stroke="#654321" stroke-width="0.3"/>
  
  <!-- Janela -->
  <rect x="12" y="14" width="3" height="3" fill="#87ceeb" stroke="#4682b4" stroke-width="0.3"/>
  <rect x="17" y="14" width="3" height="3" fill="#87ceeb" stroke="#4682b4" stroke-width="0.3"/>
  
  <!-- Detalhes da pedra -->
  <path d="M8 20c0.5-0.5 1-1 1.5-1.5" stroke="#6b5b47" stroke-width="0.3" fill="none"/>
  <path d="M24 18c0.3-0.3 0.6-0.6 0.9-0.9" stroke="#6b5b47" stroke-width="0.2" fill="none"/>
</svg>
